<?xml version="1.0" encoding="utf-8"?>
<!-- Generator: Adobe Illustrator 16.0.0, SVG Export Plug-In . SVG Version: 6.00 Build 0)  -->
<!DOCTYPE svg PUBLIC "-//W3C//DTD SVG 1.1//EN" "http://www.w3.org/Graphics/SVG/1.1/DTD/svg11.dtd">
<svg version="1.1" id="Layer_1" xmlns="http://www.w3.org/2000/svg" xmlns:xlink="http://www.w3.org/1999/xlink" x="0px" y="0px"
	 width="500px" height="250px" viewBox="0 0 500 250" enable-background="new 0 0 500 250" xml:space="preserve">
<polygon opacity="0.08" fill="#6B4CD9" enable-background="new    " points="500,285.25 500,3.083 495.834,12.416 487.167,21.083 
	475.167,51.083 454.5,51.75 438.5,58.416 418.5,60.416 408.5,56.416 398.556,39.418 387.834,34.416 363.834,34.416 352.5,39.75 
	349.63,53.249 349.382,54.416 340.556,60.141 335.834,76.416 333.167,87.75 318.5,93.083 302.5,100.416 291.834,105.25 
	280.5,121.083 280.5,131.75 272.5,149.75 255.167,155.083 243.167,160.417 225.167,168.417 217.167,177.083 217.167,191.083 
	204.5,211.75 199.833,219.75 189.833,231.083 163.167,235.083 143.833,227.083 140.5,205.75 132.5,190.416 117.167,165.75 
	103.833,165.75 100.5,173.083 80.5,173.083 75.247,175.083 66.469,178.438 62.5,183.75 62.5,197.083 49.167,201.083 39.167,197.083 
	33.167,197.083 25.833,211.083 0,213.624 0,285.25 0,400 500,400 "/>
<polygon fill="#6B4CD9" points="499.817,3.001 495.666,12.301 487.025,20.941 475.03,50.887 454.493,51.55 438.45,58.22 
	418.528,60.212 408.638,56.256 398.729,39.317 398.697,39.263 387.919,34.235 363.834,34.216 352.325,39.611 349.203,54.293 
	340.385,60.014 335.64,76.37 332.997,87.599 318.417,92.901 302.417,100.234 291.751,105.068 291.702,105.09 280.3,121.019 
	280.3,131.708 272.354,149.585 255.086,154.9 225.086,168.234 216.967,177.005 216.967,191.026 204.327,211.648 199.683,219.617 
	189.731,230.896 163.192,234.877 144.013,226.941 140.698,205.719 132.67,190.311 117.337,165.645 117.278,165.55 103.704,165.55 
	100.371,172.883 80.5,172.883 66.429,178.23 66.375,178.25 62.3,183.683 62.3,196.934 49.176,200.871 39.241,196.897 
	33.046,196.883 25.706,210.895 0,213.423 0,213.825 25.853,211.282 25.96,211.271 33.288,197.283 39.128,197.283 49.093,201.27 
	49.158,201.295 62.558,197.274 62.7,197.232 62.7,183.816 66.625,178.583 80.537,173.283 100.629,173.283 103.962,165.95 
	117.056,165.95 132.323,190.508 140.308,205.813 143.635,227.114 143.653,227.225 163.09,235.268 163.142,235.289 189.863,231.281 
	189.935,231.27 200.006,219.852 204.67,211.854 217.337,191.188 217.367,191.14 217.367,177.161 225.286,168.583 255.227,155.274 
	272.646,149.915 280.684,131.831 280.7,121.147 291.966,105.41 302.583,100.598 318.568,93.271 333.337,87.901 336.026,76.472 
	340.727,60.269 349.561,54.539 352.675,39.889 363.879,34.616 387.79,34.616 398.415,39.573 408.327,56.517 408.362,56.576 
	418.426,60.602 418.472,60.62 438.52,58.615 454.543,51.949 475.174,51.283 475.304,51.279 487.338,21.195 495.976,12.558 
	500,3.569 500,2.432 "/>
</svg>
