<?xml version="1.0" encoding="utf-8"?>
<!-- Generator: Adobe Illustrator 16.0.0, SVG Export Plug-In . SVG Version: 6.00 Build 0)  -->
<!DOCTYPE svg PUBLIC "-//W3C//DTD SVG 1.1//EN" "http://www.w3.org/Graphics/SVG/1.1/DTD/svg11.dtd">
<svg version="1.1" id="Layer_1" xmlns="http://www.w3.org/2000/svg" xmlns:xlink="http://www.w3.org/1999/xlink" x="0px" y="0px"
	 width="1200px" height="600px" viewBox="0 0 1200 600" enable-background="new 0 0 1200 600" xml:space="preserve">
<path fill="#584977" d="M279.254,290.111l-131.268,57.124L50.735,451.91l87.812,124.022c4.934,0.562,9.894,1.114,14.892,1.658
	L65.86,453.897l92.655-90.813l0.463-0.328l0.463-0.327L275.873,305.2l105.946,149.635c20.68,29.207-10.782,97.446-34.459,138.376
	c5.82,0.321,11.669,0.631,17.541,0.93c21.114-40.7,50.889-111.192,26.372-145.819L279.254,290.111z"/>
<path fill="#584977" d="M375.617,476.618c0.014-0.01,0.03-0.019,0.045-0.028c-0.484-7.309-2.322-13.832-6.015-19.047
	l-96.024-135.621l-106.331,52.332l-0.052,0.051l-0.065,0.031l-70.16,68.804l-14.521,14.106l86.367,121.98
	c51.704,5.364,106.629,9.795,164.106,13.165c11.781-19.169,27.629-48.825,36.29-76.487c0.719-2.422,1.552-4.926,2.156-7.266
	c3.178-11.467,4.837-22.379,4.217-31.849C375.625,476.733,375.622,476.676,375.617,476.618z M172.025,478.883l46.075-32.622
	l9.487-6.718l8.201,11.583l-55.562,39.339L172.025,478.883z M270.754,484.795L270.754,484.795l-36.463,25.814l0.084,0.118
	l4.754,6.715l0.064,0.091c-0.061-0.002-0.122-0.006-0.181-0.008l36.241,51.186l-14.355,10.164l-45.673-64.507
	c0.003,0,0.003,0,0.005,0.001l-4.592-6.486l49.087-34.755l0.002-0.002c19.68-13.935,24.083-34.962,9.814-55.114
	c-14.105-19.922-35.155-22.406-54.604-8.635l-0.004,0.003l-15.284,10.821l-36.5,26.018l-9.349-13.204l53.48-37.866
	c26.395-18.688,57.715-14.953,76.984,12.263C303.7,434.858,297.265,466.024,270.754,484.795z"/>
<path fill="#625381" d="M0,497.04v59.431c42.07,7.22,87.96,13.688,137.044,19.293C84.68,554.591,38.332,527.927,0,497.04z"/>
<linearGradient id="SVGID_1_" gradientUnits="userSpaceOnUse" x1="1144.3291" y1="692.7578" x2="601.368" y2="16.7756" gradientTransform="matrix(1 0 0 -1 94 605)">
	<stop  offset="0.2405" style="stop-color:#625381;stop-opacity:0"/>
	<stop  offset="1" style="stop-color:#625381"/>
</linearGradient>
<path fill="url(#SVGID_1_)" d="M848.55-199c113.485,86.324,185.021,212.393,185.021,352.808
	c0,118.334-50.812,226.477-134.715,309.232c-22.165,23.001-48.395,44.242-78.05,63.319
	c-47.096,31.359-100.295,56.281-157.812,73.229c206.839-2.697,393.981-18.574,537.004-43.113V-199H848.55z"/>
<g>
	<path fill="#EEF2F8" d="M1200,556.475C1042.591,583.482,831.738,600,600,600h600V556.475z"/>
	<path fill="#EEF2F8" d="M600,600c-231.745,0-442.593-16.52-600-43.529V600H600z"/>
</g>
</svg>
