<?xml version="1.0" encoding="utf-8"?>
<!-- Generator: Adobe Illustrator 16.0.0, SVG Export Plug-In . SVG Version: 6.00 Build 0)  -->
<!DOCTYPE svg PUBLIC "-//W3C//DTD SVG 1.1//EN" "http://www.w3.org/Graphics/SVG/1.1/DTD/svg11.dtd">
<svg version="1.1" id="Layer_1" xmlns="http://www.w3.org/2000/svg" xmlns:xlink="http://www.w3.org/1999/xlink" x="0px" y="0px"
	 width="32px" height="32px" viewBox="0 0 32 32" enable-background="new 0 0 32 32" xml:space="preserve">
<path fill="#1C1F24" d="M13.559,11.397L16,16.77l2.441-5.373h2.627v9.207h-2.127l-0.014-5.832l-2.14,4.912h-1.576l-2.142-4.912
	v5.832H10.93v-9.207H13.559z"/>
<g id="Circles">
	<path fill="#6B4CD9" d="M28.063,5.435c-2.539-2.54-5.922-3.938-9.521-3.938s-6.98,1.398-9.521,3.938
		c-5.25,5.25-5.25,13.792,0,19.042c2.539,2.541,5.922,3.938,9.521,3.938c3.602,0,6.982-1.397,9.521-3.938
		c2.539-2.539,3.938-5.92,3.938-9.52C32,11.355,30.602,7.974,28.063,5.435z M18.54,27.471c-3.342,0-6.485-1.302-8.849-3.666
		c-2.364-2.363-3.666-5.506-3.666-8.849c0-3.343,1.302-6.486,3.666-8.85c2.363-2.363,5.507-3.666,8.849-3.666
		c3.344,0,6.485,1.302,8.851,3.666c2.363,2.364,3.664,5.506,3.664,8.85c0,3.343-1.301,6.485-3.664,8.849
		C25.025,26.168,21.884,27.471,18.54,27.471z"/>
	<path fill="#563DAE" d="M27.166,8.123c-2.539-2.539-5.921-3.938-9.521-3.938c-3.6,0-6.981,1.398-9.521,3.938
		c-2.54,2.54-3.938,5.921-3.938,9.521c0,3.602,1.398,6.982,3.938,9.521c2.539,2.54,5.92,3.938,9.521,3.938
		c3.602,0,6.982-1.397,9.521-3.938c2.539-2.539,3.938-5.92,3.938-9.521C31.104,14.044,29.705,10.663,27.166,8.123z M17.645,30.159
		c-3.343,0-6.484-1.302-8.849-3.665c-2.364-2.364-3.666-5.508-3.666-8.85c0-3.343,1.302-6.485,3.666-8.85
		c2.364-2.364,5.506-3.666,8.849-3.666c3.344,0,6.486,1.301,8.851,3.665c4.879,4.88,4.879,12.819,0,17.699
		C24.13,28.857,20.986,30.159,17.645,30.159z"/>
	<path fill="#402E82" d="M24.479,9.02c-2.539-2.54-5.922-3.938-9.521-3.938S7.975,6.48,5.436,9.02c-5.25,5.25-5.25,13.792,0,19.042
		C7.975,30.602,11.355,32,14.956,32s6.981-1.398,9.521-3.938c2.539-2.541,3.938-5.922,3.938-9.522
		C28.415,14.94,27.018,11.559,24.479,9.02z M14.956,6.026c3.343,0,6.485,1.302,8.851,3.666c2.362,2.364,3.664,5.507,3.664,8.849
		s-1.302,6.486-3.664,8.85c-2.365,2.363-5.508,3.666-8.851,3.666s-6.485-1.302-8.849-3.666c-2.364-2.363-3.666-5.506-3.666-8.849
		s1.301-6.486,3.666-8.85C8.471,7.328,11.613,6.026,14.956,6.026z"/>
	<path fill="#2B1E57" d="M24.225,7.782c-2.563-3.413-6.494-5.37-10.779-5.37c-2.936,0-5.728,0.932-8.073,2.695
		c-5.937,4.461-7.136,12.918-2.677,18.854c2.566,3.414,6.496,5.372,10.781,5.372l0,0c2.936,0,5.728-0.933,8.073-2.696
		C27.484,22.176,28.686,13.718,24.225,7.782z M20.979,25.877c-2.186,1.643-4.78,2.51-7.508,2.51c-3.979,0-7.628-1.82-10.016-4.996
		c-4.145-5.518-3.03-13.377,2.486-17.523c2.187-1.643,4.783-2.511,7.51-2.511c3.979,0,7.627,1.821,10.014,4.997
		C27.609,13.871,26.495,21.73,20.979,25.877z"/>
	<path fill="#150F2B" d="M27.327,5.371C24.762,1.958,20.832,0,16.547,0c-2.936,0-5.727,0.932-8.074,2.696
		C2.538,7.156,1.337,15.614,5.798,21.55c2.565,3.413,6.495,5.371,10.781,5.371l0,0c2.935,0,5.726-0.932,8.073-2.694
		c2.869-2.158,4.729-5.31,5.234-8.875C30.395,11.786,29.484,8.242,27.327,5.371z M24.08,23.465
		c-2.186,1.643-4.782,2.512-7.508,2.512c-3.979,0-7.629-1.822-10.016-4.998C2.411,15.461,3.527,7.601,9.043,3.455
		c2.186-1.643,4.782-2.511,7.509-2.511c3.978,0,7.628,1.821,10.015,4.997C30.712,11.459,29.598,19.32,24.08,23.465z"/>
</g>
</svg>
